<svg width="1590" height="530" viewBox="0 0 1590 530" fill="none" xmlns="http://www.w3.org/2000/svg">
<rect width="1590" height="530" fill="white"/>
<g clip-path="url(#clip0_104_255)">
<path d="M1353.96 205.661C1354.29 204.701 1385.16 201.177 1379.91 229.685H1381.55C1381.55 229.685 1384.83 240.897 1370.38 253.069C1369.4 254.35 1371.37 255.952 1371.37 255.952C1371.37 255.952 1367.43 255.311 1367.75 249.225C1368.08 243.139 1374.98 235.451 1373.67 234.49H1370.71C1370.71 234.49 1380.56 220.716 1364.8 211.107C1364.8 211.107 1366.77 213.669 1367.1 219.435C1367.68 229.685 1356.59 235.771 1356.59 247.623C1356.59 269.725 1391.07 260.436 1391.07 260.436C1391.07 260.436 1390.74 264.92 1371.37 267.163C1366.44 273.249 1368.08 280.616 1364.14 284.14C1362.17 286.382 1360.2 287.023 1355.6 289.905C1350.35 294.07 1350.02 301.437 1350.02 301.437C1350.02 301.437 1353.63 306.882 1355.6 306.882C1357.57 306.882 1357.9 304.96 1361.51 304.96C1365.13 304.96 1366.44 311.046 1365.45 311.046C1364.47 311.046 1347.72 311.046 1347.72 311.046C1347.72 311.046 1346.08 309.445 1346.08 303.359C1346.08 297.273 1347.72 290.866 1352.65 287.343C1352.65 287.343 1355.93 286.702 1358.56 283.179C1360.53 273.889 1363.16 268.444 1363.16 268.444C1363.16 268.444 1355.93 268.444 1352.65 264.92C1349.37 261.397 1348.71 255.952 1348.71 255.952L1352.65 254.991C1352.65 254.991 1334.92 247.623 1352.65 228.404V232.889C1352.65 232.889 1371.37 220.396 1353.96 205.661Z" fill="black"/>
<path d="M1350.38 302.353C1350.38 302.353 1350.71 297.475 1358.21 292.598C1358.21 292.598 1363.1 291.297 1369.62 288.046C1372.23 286.745 1370.27 283.168 1370.6 282.843C1370.93 282.518 1371.58 283.168 1373.86 284.144C1376.92 284.144 1377.12 273.088 1377.12 273.088C1377.12 273.088 1393.43 280.567 1405.17 269.186C1398.9 285.444 1400.28 287.395 1400.28 287.395C1400.28 287.395 1401.91 285.119 1402.56 285.444C1403.21 285.769 1410.71 308.856 1410.71 308.856C1410.71 308.856 1405.17 306.58 1400.28 292.598C1400.28 292.598 1398.32 294.874 1397.67 294.549C1397.02 294.224 1394.41 288.045 1395.06 283.168C1389.19 284.143 1383.32 282.518 1383.32 282.518C1383.32 282.518 1384.3 282.843 1384.3 286.745C1384.3 290.647 1381.69 296.5 1381.69 298.126C1381.69 300.402 1384.3 306.255 1385.93 306.255C1387.56 306.255 1386.91 304.954 1389.52 304.954C1392.12 304.954 1393.43 309.181 1392.78 309.507C1392.12 309.832 1384.62 309.507 1382.34 309.507C1380.06 309.507 1375.17 299.101 1375.17 298.126C1375.17 297.15 1373.86 292.273 1371.9 291.948C1365.71 293.574 1354.29 297.15 1352.99 304.954C1351.68 312.758 1352.99 306.58 1352.99 306.58L1350.38 302.353Z" fill="black"/>
<path d="M1442.79 251.995C1440.4 238.772 1429.69 227.105 1421.5 223.215C1421.82 222.567 1427.39 223.54 1427.72 223.215C1427.72 223.215 1425.1 219.974 1415.93 219.002C1414.62 216.085 1408.06 207.659 1407.41 207.983C1406.75 208.307 1408.06 211.224 1407.74 212.844C1407.41 214.465 1405.44 215.437 1405.44 215.437C1405.44 215.437 1397.91 221.271 1398.89 221.271C1399.87 221.271 1403.8 217.706 1403.8 218.354C1403.8 219.002 1399.87 222.243 1400.53 222.243C1401.18 222.243 1403.8 220.947 1403.8 221.595C1403.8 222.243 1387.42 227.105 1389.72 229.373C1391.03 230.67 1392.01 231.318 1392.67 231.642C1393.32 231.966 1396.27 231.804 1396.93 231.642C1397.58 231.48 1405.44 227.105 1408.06 226.456C1410.69 225.808 1416.91 226.456 1416.91 227.105C1416.91 227.753 1409.05 229.727 1410.69 230.022C1414.29 230.67 1419.2 229.697 1424.77 236.828C1424.77 236.828 1426.41 239.744 1426.41 243.634C1426.08 251.412 1420.84 255.625 1420.84 255.625C1420.84 255.625 1420.51 256.274 1421.17 249.468C1421.82 242.661 1417.24 240.393 1417.24 240.393C1417.24 240.393 1417.56 242.337 1417.56 243.958C1417.24 257.894 1399.87 257.57 1399.87 257.57C1399.87 257.57 1411.01 250.764 1410.69 242.986C1410.69 241.689 1409.37 234.559 1404.46 234.235C1400.86 233.263 1394.96 234.235 1392.99 234.235C1391.03 234.235 1385.46 228.725 1385.46 227.105C1385.46 225.484 1395.61 222.891 1396.27 222.243C1396.93 221.595 1396.6 219.002 1396.6 218.354C1396.6 217.706 1400.53 216.085 1400.86 215.437C1401.18 214.789 1402.17 207.659 1402.82 207.659C1403.48 207.659 1403.48 211.872 1404.13 213.817C1406.1 213.492 1404.46 205.714 1406.1 205.066C1407.74 204.418 1415.27 208.631 1418.88 214.465C1442.79 221.919 1445.09 230.67 1445.09 230.67C1445.09 230.67 1434.27 225.808 1433.95 226.132C1433.62 226.456 1450 234.235 1450 257.57C1450 265.349 1448.69 269.238 1448.69 269.238L1443.45 261.783C1443.45 261.783 1444.36 265.673 1444.43 267.617C1444.76 276.368 1437.88 283.498 1437.22 283.498C1435.58 277.34 1431.65 278.636 1431.65 278.636C1431.65 278.636 1433.62 279.609 1433.62 282.526C1433.62 285.443 1429.69 292.573 1430.01 296.138C1430.58 302.296 1431.98 302.944 1432.64 302.944C1433.29 302.944 1434.6 300.999 1437.22 300.675C1440.5 300.27 1444.1 307.157 1442.79 308.13C1441.15 308.13 1430.67 308.13 1428.7 308.13C1426.74 308.13 1424.12 299.379 1424.77 298.082C1424.12 298.082 1423.13 299.703 1423.13 299.703C1423.13 299.703 1420.84 295.814 1421.5 291.601C1421.17 291.6 1419.86 293.869 1419.86 293.869C1419.86 293.869 1418.88 291.277 1418.88 289.008C1418.88 286.739 1420.51 283.174 1420.19 282.85C1419.86 282.526 1418.22 283.174 1417.56 282.85C1416.91 282.526 1418.22 277.016 1418.22 277.016C1418.22 277.016 1413.31 280.905 1413.96 287.387C1414.71 294.842 1415.93 298.731 1415.93 298.731C1415.93 298.731 1416.58 304.241 1417.24 304.565C1417.89 304.889 1418.55 303.592 1419.86 303.592C1421.17 303.592 1423.79 305.213 1424.77 308.13C1424.77 308.13 1425.1 310.398 1424.77 311.046C1423.13 311.046 1424.77 311.046 1422.48 311.046C1421.82 310.074 1422.48 307.158 1418.88 306.185C1416.91 306.185 1416.58 307.482 1415.6 307.481C1414.62 306.833 1412.98 304.889 1411.67 291.925C1410.69 291.925 1410.03 293.221 1410.03 293.221C1410.03 293.221 1409.37 292.573 1409.37 288.035C1409.37 283.498 1410.36 281.229 1410.36 281.229C1409.7 280.581 1406.43 285.443 1406.43 285.443C1407.08 269.562 1421.5 260.811 1421.5 260.811C1421.5 260.811 1420.84 268.265 1416.25 272.479C1417.89 272.155 1436.57 266.645 1432.31 247.199C1437.55 246.875 1442.46 252.709 1442.79 251.995Z" fill="black"/>
<path d="M1090.3 216.163H1098.05L1104.05 239.549H1104.16V216.163H1109.66V255.233H1103.32L1095.91 226.712H1095.8V255.233H1090.3V216.163ZM1114.25 216.163H1120.43V255.233H1114.25V216.163ZM1133.81 255.791C1130.81 255.791 1128.53 254.954 1126.96 253.279C1125.39 251.567 1124.6 249.13 1124.6 245.968V225.428C1124.6 222.265 1125.39 219.847 1126.96 218.172C1128.53 216.461 1130.81 215.605 1133.81 215.605C1136.8 215.605 1139.08 216.461 1140.65 218.172C1142.22 219.847 1143.01 222.265 1143.01 225.428V228.777H1137.17V225.037C1137.17 222.47 1136.11 221.186 1133.97 221.186C1131.84 221.186 1130.77 222.47 1130.77 225.037V246.414C1130.77 248.944 1131.84 250.209 1133.97 250.209C1136.11 250.209 1137.17 248.944 1137.17 246.414V238.768H1134.09V233.186H1143.01V245.968C1143.01 249.13 1142.22 251.567 1140.65 253.279C1139.08 254.954 1136.8 255.791 1133.81 255.791ZM1146.97 216.163H1153.15V232.07H1159.77V216.163H1165.94V255.233H1159.77V237.651H1153.15V255.233H1146.97V216.163ZM1175.37 221.744H1168.91V216.163H1188V221.744H1181.54V255.233H1175.37V221.744ZM1196.36 221.744H1189.91V216.163H1208.99V221.744H1202.53V255.233H1196.36V221.744ZM1211.98 216.163H1221.12C1224.3 216.163 1226.62 216.907 1228.08 218.395C1229.54 219.847 1230.27 222.098 1230.27 225.149V227.549C1230.27 231.605 1228.93 234.172 1226.23 235.251V235.363C1227.73 235.809 1228.78 236.721 1229.38 238.098C1230.01 239.475 1230.33 241.316 1230.33 243.623V250.488C1230.33 251.605 1230.37 252.516 1230.44 253.223C1230.52 253.893 1230.7 254.563 1231 255.233H1224.72C1224.49 254.6 1224.34 254.005 1224.27 253.447C1224.19 252.888 1224.16 251.884 1224.16 250.433V243.288C1224.16 241.502 1223.86 240.256 1223.26 239.549C1222.7 238.842 1221.7 238.488 1220.28 238.488H1218.15V255.233H1211.98V216.163ZM1220.4 232.907C1221.63 232.907 1222.55 232.591 1223.15 231.958C1223.78 231.326 1224.1 230.265 1224.1 228.777V225.763C1224.1 224.349 1223.84 223.326 1223.31 222.693C1222.83 222.061 1222.04 221.744 1220.96 221.744H1218.15V232.907H1220.4ZM1239.38 216.163H1247.75L1254.14 255.233H1247.97L1246.85 247.475V247.586H1239.83L1238.71 255.233H1232.99L1239.38 216.163ZM1246.12 242.284L1243.37 222.972H1243.26L1240.56 242.284H1246.12ZM1257.14 216.163H1273.47V221.744H1263.31V232.628H1271.28V238.209H1263.31V255.233H1257.14V216.163ZM1276.43 216.163H1292.76V221.744H1282.6V232.628H1290.57V238.209H1282.6V255.233H1276.43V216.163ZM1295.72 216.163H1301.9V255.233H1295.72V216.163ZM1315.22 255.791C1312.26 255.791 1310 254.954 1308.43 253.279C1306.9 251.605 1306.13 249.242 1306.13 246.191V225.205C1306.13 222.154 1306.9 219.791 1308.43 218.116C1310 216.442 1312.26 215.605 1315.22 215.605C1318.18 215.605 1320.42 216.442 1321.96 218.116C1323.53 219.791 1324.31 222.154 1324.31 225.205V229.335H1318.48V224.814C1318.48 222.395 1317.45 221.186 1315.39 221.186C1313.33 221.186 1312.3 222.395 1312.3 224.814V246.637C1312.3 249.019 1313.33 250.209 1315.39 250.209C1317.45 250.209 1318.48 249.019 1318.48 246.637V240.665H1324.31V246.191C1324.31 249.242 1323.53 251.605 1321.96 253.279C1320.42 254.954 1318.18 255.791 1315.22 255.791Z" fill="black"/>
<path d="M1251.66 269.186H1259.4L1265.41 292.572H1265.52V269.186H1271.02V308.256H1264.68L1257.27 279.735H1257.16V308.256H1251.66V269.186ZM1274.15 269.186H1280.1L1282.85 299.214H1282.96L1285.88 269.186H1292.61L1295.53 299.214H1295.64L1298.4 269.186H1303.73L1299.74 308.256H1292.05L1289.25 281.912H1289.13L1286.33 308.256H1278.13L1274.15 269.186ZM1314.88 308.814C1311.88 308.814 1309.62 307.977 1308.08 306.302C1306.55 304.591 1305.78 302.154 1305.78 298.991V296.758H1311.62V299.437C1311.62 301.967 1312.69 303.233 1314.82 303.233C1315.87 303.233 1316.65 302.935 1317.18 302.34C1317.74 301.707 1318.02 300.702 1318.02 299.326C1318.02 297.688 1317.64 296.256 1316.9 295.028C1316.15 293.763 1314.76 292.256 1312.74 290.507C1310.2 288.274 1308.42 286.265 1307.41 284.479C1306.4 282.656 1305.9 280.609 1305.9 278.34C1305.9 275.251 1306.68 272.87 1308.25 271.195C1309.82 269.484 1312.11 268.628 1315.1 268.628C1318.06 268.628 1320.28 269.484 1321.78 271.195C1323.31 272.87 1324.08 275.288 1324.08 278.451V280.07H1318.24V278.06C1318.24 276.721 1317.98 275.754 1317.46 275.158C1316.93 274.526 1316.17 274.209 1315.16 274.209C1313.1 274.209 1312.07 275.456 1312.07 277.949C1312.07 279.363 1312.44 280.684 1313.19 281.912C1313.98 283.14 1315.38 284.628 1317.4 286.377C1319.98 288.609 1321.76 290.637 1322.73 292.46C1323.71 294.284 1324.19 296.423 1324.19 298.879C1324.19 302.079 1323.39 304.535 1321.78 306.247C1320.21 307.958 1317.91 308.814 1314.88 308.814Z" fill="#0075FF"/>
</g>
<path d="M0 0H990L858 530H0V0Z" fill="#0075FF"/>
<path d="M143.445 251V212.5H177.49V251H170.45V216.79L172.1 218.55H148.835L150.485 216.79V251H143.445ZM204.956 251.385C202.573 251.385 200.391 250.835 198.411 249.735C196.468 248.635 194.909 246.985 193.736 244.785C192.599 242.548 192.031 239.725 192.031 236.315C192.031 232.868 192.581 230.045 193.681 227.845C194.818 225.645 196.358 224.013 198.301 222.95C200.244 221.85 202.463 221.3 204.956 221.3C207.853 221.3 210.401 221.923 212.601 223.17C214.838 224.417 216.598 226.158 217.881 228.395C219.201 230.632 219.861 233.272 219.861 236.315C219.861 239.358 219.201 242.017 217.881 244.29C216.598 246.527 214.838 248.268 212.601 249.515C210.401 250.762 207.853 251.385 204.956 251.385ZM188.676 261.67V221.63H195.221V228.56L195.001 236.37L195.551 244.18V261.67H188.676ZM204.186 245.5C205.836 245.5 207.303 245.133 208.586 244.4C209.906 243.667 210.951 242.603 211.721 241.21C212.491 239.817 212.876 238.185 212.876 236.315C212.876 234.408 212.491 232.777 211.721 231.42C210.951 230.027 209.906 228.963 208.586 228.23C207.303 227.497 205.836 227.13 204.186 227.13C202.536 227.13 201.051 227.497 199.731 228.23C198.411 228.963 197.366 230.027 196.596 231.42C195.826 232.777 195.441 234.408 195.441 236.315C195.441 238.185 195.826 239.817 196.596 241.21C197.366 242.603 198.411 243.667 199.731 244.4C201.051 245.133 202.536 245.5 204.186 245.5ZM240.893 251.385C237.887 251.385 235.21 250.743 232.863 249.46C230.517 248.14 228.665 246.343 227.308 244.07C225.952 241.797 225.273 239.212 225.273 236.315C225.273 233.382 225.952 230.797 227.308 228.56C228.665 226.287 230.517 224.508 232.863 223.225C235.21 221.942 237.887 221.3 240.893 221.3C243.937 221.3 246.632 221.942 248.978 223.225C251.362 224.508 253.213 226.268 254.533 228.505C255.89 230.742 256.568 233.345 256.568 236.315C256.568 239.212 255.89 241.797 254.533 244.07C253.213 246.343 251.362 248.14 248.978 249.46C246.632 250.743 243.937 251.385 240.893 251.385ZM240.893 245.5C242.58 245.5 244.083 245.133 245.403 244.4C246.723 243.667 247.75 242.603 248.483 241.21C249.253 239.817 249.638 238.185 249.638 236.315C249.638 234.408 249.253 232.777 248.483 231.42C247.75 230.027 246.723 228.963 245.403 228.23C244.083 227.497 242.598 227.13 240.948 227.13C239.262 227.13 237.758 227.497 236.438 228.23C235.155 228.963 234.128 230.027 233.358 231.42C232.588 232.777 232.203 234.408 232.203 236.315C232.203 238.185 232.588 239.817 233.358 241.21C234.128 242.603 235.155 243.667 236.438 244.4C237.758 245.133 239.243 245.5 240.893 245.5ZM283.105 251.55C283.068 251.55 282.903 251.55 282.61 251.55C282.353 251.55 282.097 251.55 281.84 251.55C281.62 251.55 281.473 251.55 281.4 251.55C275.203 251.477 270.4 250.138 266.99 247.535C263.58 244.895 261.875 241.137 261.875 236.26C261.875 231.42 263.58 227.717 266.99 225.15C270.4 222.583 275.258 221.263 281.565 221.19C281.638 221.19 281.785 221.19 282.005 221.19C282.262 221.19 282.5 221.19 282.72 221.19C282.977 221.19 283.123 221.19 283.16 221.19C289.503 221.19 294.435 222.492 297.955 225.095C301.512 227.662 303.29 231.383 303.29 236.26C303.29 241.173 301.512 244.95 297.955 247.59C294.435 250.23 289.485 251.55 283.105 251.55ZM282.885 245.83C286.002 245.83 288.568 245.482 290.585 244.785C292.602 244.052 294.105 242.988 295.095 241.595C296.085 240.165 296.58 238.387 296.58 236.26C296.58 234.17 296.085 232.447 295.095 231.09C294.105 229.697 292.602 228.67 290.585 228.01C288.568 227.313 286.002 226.965 282.885 226.965C282.812 226.965 282.628 226.965 282.335 226.965C282.078 226.965 281.913 226.965 281.84 226.965C278.797 226.965 276.303 227.332 274.36 228.065C272.417 228.762 270.968 229.788 270.015 231.145C269.098 232.502 268.64 234.207 268.64 236.26C268.64 238.35 269.098 240.092 270.015 241.485C270.968 242.878 272.417 243.942 274.36 244.675C276.34 245.408 278.833 245.793 281.84 245.83C281.913 245.83 282.078 245.83 282.335 245.83C282.628 245.83 282.812 245.83 282.885 245.83ZM279.31 261.67V210.19H285.8V261.67H279.31ZM324.748 251.385C321.485 251.385 318.625 250.743 316.168 249.46C313.748 248.14 311.86 246.343 310.503 244.07C309.183 241.797 308.523 239.212 308.523 236.315C308.523 233.382 309.165 230.797 310.448 228.56C311.768 226.287 313.565 224.508 315.838 223.225C318.148 221.942 320.77 221.3 323.703 221.3C326.563 221.3 329.112 221.923 331.348 223.17C333.585 224.417 335.345 226.177 336.628 228.45C337.912 230.723 338.553 233.4 338.553 236.48C338.553 236.773 338.535 237.103 338.498 237.47C338.498 237.837 338.48 238.185 338.443 238.515H313.968V233.95H334.813L332.118 235.38C332.155 233.693 331.807 232.208 331.073 230.925C330.34 229.642 329.332 228.633 328.048 227.9C326.802 227.167 325.353 226.8 323.703 226.8C322.017 226.8 320.532 227.167 319.248 227.9C318.002 228.633 317.012 229.66 316.278 230.98C315.582 232.263 315.233 233.785 315.233 235.545V236.645C315.233 238.405 315.637 239.963 316.443 241.32C317.25 242.677 318.387 243.722 319.853 244.455C321.32 245.188 323.007 245.555 324.913 245.555C326.563 245.555 328.048 245.298 329.368 244.785C330.688 244.272 331.862 243.465 332.888 242.365L336.573 246.6C335.253 248.14 333.585 249.332 331.568 250.175C329.588 250.982 327.315 251.385 324.748 251.385ZM360.538 251.385C357.458 251.385 354.708 250.743 352.288 249.46C349.904 248.14 348.034 246.343 346.678 244.07C345.321 241.797 344.643 239.212 344.643 236.315C344.643 233.382 345.321 230.797 346.678 228.56C348.034 226.287 349.904 224.508 352.288 223.225C354.708 221.942 357.458 221.3 360.538 221.3C363.398 221.3 365.909 221.887 368.073 223.06C370.273 224.197 371.941 225.883 373.078 228.12L367.798 231.2C366.918 229.807 365.836 228.78 364.553 228.12C363.306 227.46 361.949 227.13 360.483 227.13C358.796 227.13 357.274 227.497 355.918 228.23C354.561 228.963 353.498 230.027 352.728 231.42C351.958 232.777 351.573 234.408 351.573 236.315C351.573 238.222 351.958 239.872 352.728 241.265C353.498 242.622 354.561 243.667 355.918 244.4C357.274 245.133 358.796 245.5 360.483 245.5C361.949 245.5 363.306 245.17 364.553 244.51C365.836 243.85 366.918 242.823 367.798 241.43L373.078 244.51C371.941 246.71 370.273 248.415 368.073 249.625C365.909 250.798 363.398 251.385 360.538 251.385ZM393.166 251.385C390.086 251.385 387.336 250.743 384.916 249.46C382.533 248.14 380.663 246.343 379.306 244.07C377.949 241.797 377.271 239.212 377.271 236.315C377.271 233.382 377.949 230.797 379.306 228.56C380.663 226.287 382.533 224.508 384.916 223.225C387.336 221.942 390.086 221.3 393.166 221.3C396.026 221.3 398.538 221.887 400.701 223.06C402.901 224.197 404.569 225.883 405.706 228.12L400.426 231.2C399.546 229.807 398.464 228.78 397.181 228.12C395.934 227.46 394.578 227.13 393.111 227.13C391.424 227.13 389.903 227.497 388.546 228.23C387.189 228.963 386.126 230.027 385.356 231.42C384.586 232.777 384.201 234.408 384.201 236.315C384.201 238.222 384.586 239.872 385.356 241.265C386.126 242.622 387.189 243.667 388.546 244.4C389.903 245.133 391.424 245.5 393.111 245.5C394.578 245.5 395.934 245.17 397.181 244.51C398.464 243.85 399.546 242.823 400.426 241.43L405.706 244.51C404.569 246.71 402.901 248.415 400.701 249.625C398.538 250.798 396.026 251.385 393.166 251.385ZM412.859 251V221.63H419.734V240.99L435.959 221.63H442.229V251H435.354V231.64L419.184 251H412.859ZM465.667 251.385C462.661 251.385 459.984 250.743 457.637 249.46C455.291 248.14 453.439 246.343 452.082 244.07C450.726 241.797 450.047 239.212 450.047 236.315C450.047 233.382 450.726 230.797 452.082 228.56C453.439 226.287 455.291 224.508 457.637 223.225C459.984 221.942 462.661 221.3 465.667 221.3C468.711 221.3 471.406 221.942 473.752 223.225C476.136 224.508 477.987 226.268 479.307 228.505C480.664 230.742 481.342 233.345 481.342 236.315C481.342 239.212 480.664 241.797 479.307 244.07C477.987 246.343 476.136 248.14 473.752 249.46C471.406 250.743 468.711 251.385 465.667 251.385ZM465.667 245.5C467.354 245.5 468.857 245.133 470.177 244.4C471.497 243.667 472.524 242.603 473.257 241.21C474.027 239.817 474.412 238.185 474.412 236.315C474.412 234.408 474.027 232.777 473.257 231.42C472.524 230.027 471.497 228.963 470.177 228.23C468.857 227.497 467.372 227.13 465.722 227.13C464.036 227.13 462.532 227.497 461.212 228.23C459.929 228.963 458.902 230.027 458.132 231.42C457.362 232.777 456.977 234.408 456.977 236.315C456.977 238.185 457.362 239.817 458.132 241.21C458.902 242.603 459.929 243.667 461.212 244.4C462.532 245.133 464.017 245.5 465.667 245.5ZM489.234 251V221.63H496.109V233.565H510.904V221.63H517.779V251H510.904V239.395H496.109V251H489.234ZM545.913 251V245.06L545.528 243.795V233.4C545.528 231.383 544.923 229.825 543.713 228.725C542.503 227.588 540.669 227.02 538.213 227.02C536.563 227.02 534.931 227.277 533.318 227.79C531.741 228.303 530.403 229.018 529.303 229.935L526.608 224.93C528.184 223.72 530.054 222.822 532.218 222.235C534.418 221.612 536.691 221.3 539.038 221.3C543.291 221.3 546.573 222.327 548.883 224.38C551.229 226.397 552.403 229.532 552.403 233.785V251H545.913ZM536.673 251.385C534.473 251.385 532.548 251.018 530.898 250.285C529.248 249.515 527.964 248.47 527.048 247.15C526.168 245.793 525.728 244.272 525.728 242.585C525.728 240.935 526.113 239.45 526.883 238.13C527.689 236.81 528.991 235.765 530.788 234.995C532.584 234.225 534.968 233.84 537.938 233.84H546.463V238.405H538.433C536.086 238.405 534.509 238.79 533.703 239.56C532.896 240.293 532.493 241.21 532.493 242.31C532.493 243.557 532.988 244.547 533.978 245.28C534.968 246.013 536.343 246.38 538.103 246.38C539.789 246.38 541.293 245.995 542.613 245.225C543.969 244.455 544.941 243.318 545.528 241.815L546.683 245.94C546.023 247.663 544.831 249.002 543.108 249.955C541.421 250.908 539.276 251.385 536.673 251.385ZM557.72 250.945L558.05 245.17C558.307 245.207 558.545 245.243 558.765 245.28C558.985 245.317 559.187 245.335 559.37 245.335C560.507 245.335 561.387 244.987 562.01 244.29C562.633 243.593 563.092 242.658 563.385 241.485C563.715 240.275 563.935 238.937 564.045 237.47C564.192 235.967 564.302 234.463 564.375 232.96L564.87 221.63H588.63V251H581.755V225.59L583.35 227.46H569.38L570.865 225.535L570.48 233.29C570.37 235.893 570.15 238.313 569.82 240.55C569.527 242.75 569.05 244.675 568.39 246.325C567.767 247.975 566.887 249.258 565.75 250.175C564.65 251.092 563.238 251.55 561.515 251.55C560.965 251.55 560.36 251.495 559.7 251.385C559.077 251.275 558.417 251.128 557.72 250.945ZM613.729 231.31C617.506 231.31 620.384 232.153 622.364 233.84C624.344 235.527 625.334 237.91 625.334 240.99C625.334 244.18 624.234 246.673 622.034 248.47C619.834 250.23 616.736 251.092 612.739 251.055L598.989 251V221.63H605.864V231.255L613.729 231.31ZM612.134 245.995C614.151 246.032 615.691 245.61 616.754 244.73C617.817 243.85 618.349 242.567 618.349 240.88C618.349 239.193 617.817 237.983 616.754 237.25C615.727 236.48 614.187 236.077 612.134 236.04L605.864 235.985V245.94L612.134 245.995ZM632.477 251V221.63H639.352V233.565H654.147V221.63H661.022V251H654.147V239.395H639.352V251H632.477ZM689.155 251V245.06L688.77 243.795V233.4C688.77 231.383 688.165 229.825 686.955 228.725C685.745 227.588 683.912 227.02 681.455 227.02C679.805 227.02 678.174 227.277 676.56 227.79C674.984 228.303 673.645 229.018 672.545 229.935L669.85 224.93C671.427 223.72 673.297 222.822 675.46 222.235C677.66 221.612 679.934 221.3 682.28 221.3C686.534 221.3 689.815 222.327 692.125 224.38C694.472 226.397 695.645 229.532 695.645 233.785V251H689.155ZM679.915 251.385C677.715 251.385 675.79 251.018 674.14 250.285C672.49 249.515 671.207 248.47 670.29 247.15C669.41 245.793 668.97 244.272 668.97 242.585C668.97 240.935 669.355 239.45 670.125 238.13C670.932 236.81 672.234 235.765 674.03 234.995C675.827 234.225 678.21 233.84 681.18 233.84H689.705V238.405H681.675C679.329 238.405 677.752 238.79 676.945 239.56C676.139 240.293 675.735 241.21 675.735 242.31C675.735 243.557 676.23 244.547 677.22 245.28C678.21 246.013 679.585 246.38 681.345 246.38C683.032 246.38 684.535 245.995 685.855 245.225C687.212 244.455 688.184 243.318 688.77 241.815L689.925 245.94C689.265 247.663 688.074 249.002 686.35 249.955C684.664 250.908 682.519 251.385 679.915 251.385ZM723.898 251V240.99L724.888 242.145H716.088C712.054 242.145 708.883 241.302 706.573 239.615C704.299 237.892 703.163 235.417 703.163 232.19C703.163 228.743 704.373 226.122 706.793 224.325C709.249 222.528 712.513 221.63 716.583 221.63H730.058V251H723.898ZM702.778 251L710.698 239.78H717.738L710.148 251H702.778ZM723.898 238.79V225.59L724.888 227.405H716.803C714.676 227.405 713.026 227.808 711.853 228.615C710.716 229.385 710.148 230.65 710.148 232.41C710.148 235.71 712.293 237.36 716.583 237.36H724.888L723.898 238.79ZM158.9 318.385C156.517 318.385 154.335 317.835 152.355 316.735C150.412 315.635 148.853 313.985 147.68 311.785C146.543 309.548 145.975 306.725 145.975 303.315C145.975 299.868 146.525 297.045 147.625 294.845C148.762 292.645 150.302 291.013 152.245 289.95C154.188 288.85 156.407 288.3 158.9 288.3C161.797 288.3 164.345 288.923 166.545 290.17C168.782 291.417 170.542 293.158 171.825 295.395C173.145 297.632 173.805 300.272 173.805 303.315C173.805 306.358 173.145 309.017 171.825 311.29C170.542 313.527 168.782 315.268 166.545 316.515C164.345 317.762 161.797 318.385 158.9 318.385ZM142.62 328.67V288.63H149.165V295.56L148.945 303.37L149.495 311.18V328.67H142.62ZM158.13 312.5C159.78 312.5 161.247 312.133 162.53 311.4C163.85 310.667 164.895 309.603 165.665 308.21C166.435 306.817 166.82 305.185 166.82 303.315C166.82 301.408 166.435 299.777 165.665 298.42C164.895 297.027 163.85 295.963 162.53 295.23C161.247 294.497 159.78 294.13 158.13 294.13C156.48 294.13 154.995 294.497 153.675 295.23C152.355 295.963 151.31 297.027 150.54 298.42C149.77 299.777 149.385 301.408 149.385 303.315C149.385 305.185 149.77 306.817 150.54 308.21C151.31 309.603 152.355 310.667 153.675 311.4C154.995 312.133 156.48 312.5 158.13 312.5ZM199.191 318V312.06L198.806 310.795V300.4C198.806 298.383 198.201 296.825 196.991 295.725C195.781 294.588 193.948 294.02 191.491 294.02C189.841 294.02 188.21 294.277 186.596 294.79C185.02 295.303 183.681 296.018 182.581 296.935L179.886 291.93C181.463 290.72 183.333 289.822 185.496 289.235C187.696 288.612 189.97 288.3 192.316 288.3C196.57 288.3 199.851 289.327 202.161 291.38C204.508 293.397 205.681 296.532 205.681 300.785V318H199.191ZM189.951 318.385C187.751 318.385 185.826 318.018 184.176 317.285C182.526 316.515 181.243 315.47 180.326 314.15C179.446 312.793 179.006 311.272 179.006 309.585C179.006 307.935 179.391 306.45 180.161 305.13C180.968 303.81 182.27 302.765 184.066 301.995C185.863 301.225 188.246 300.84 191.216 300.84H199.741V305.405H191.711C189.365 305.405 187.788 305.79 186.981 306.56C186.175 307.293 185.771 308.21 185.771 309.31C185.771 310.557 186.266 311.547 187.256 312.28C188.246 313.013 189.621 313.38 191.381 313.38C193.068 313.38 194.571 312.995 195.891 312.225C197.248 311.455 198.22 310.318 198.806 308.815L199.961 312.94C199.301 314.663 198.11 316.002 196.386 316.955C194.7 317.908 192.555 318.385 189.951 318.385ZM224.208 318.495C226.921 318.495 229.323 318.11 231.413 317.34C233.539 316.57 235.208 315.507 236.418 314.15C237.628 312.757 238.233 311.162 238.233 309.365C238.233 307.128 237.298 305.368 235.428 304.085C233.558 302.765 230.991 302.105 227.728 302.105L227.508 303.59C229.414 303.59 231.101 303.278 232.568 302.655C234.071 302.032 235.244 301.17 236.088 300.07C236.968 298.933 237.408 297.668 237.408 296.275C237.408 294.588 236.803 293.122 235.593 291.875C234.383 290.628 232.733 289.675 230.643 289.015C228.553 288.355 226.169 288.08 223.493 288.19C221.733 288.227 219.954 288.483 218.158 288.96C216.398 289.4 214.583 290.042 212.713 290.885L214.473 295.945C216.086 295.248 217.663 294.717 219.203 294.35C220.779 293.983 222.301 293.8 223.768 293.8C225.161 293.8 226.353 293.947 227.343 294.24C228.333 294.497 229.084 294.9 229.598 295.45C230.148 295.963 230.423 296.568 230.423 297.265C230.423 297.962 230.203 298.567 229.763 299.08C229.323 299.593 228.681 299.978 227.838 300.235C227.031 300.492 226.041 300.62 224.868 300.62H219.753V305.24H225.418C227.288 305.24 228.718 305.552 229.708 306.175C230.734 306.762 231.248 307.642 231.248 308.815C231.248 309.622 230.936 310.337 230.313 310.96C229.726 311.583 228.883 312.06 227.783 312.39C226.683 312.683 225.363 312.83 223.823 312.83C222.026 312.83 220.229 312.61 218.433 312.17C216.636 311.73 215.023 311.107 213.593 310.3L211.668 315.415C213.428 316.405 215.389 317.175 217.553 317.725C219.753 318.238 221.971 318.495 224.208 318.495ZM262.693 318.385C260.31 318.385 258.128 317.835 256.148 316.735C254.205 315.635 252.647 313.985 251.473 311.785C250.337 309.548 249.768 306.725 249.768 303.315C249.768 299.868 250.318 297.045 251.418 294.845C252.555 292.645 254.095 291.013 256.038 289.95C257.982 288.85 260.2 288.3 262.693 288.3C265.59 288.3 268.138 288.923 270.338 290.17C272.575 291.417 274.335 293.158 275.618 295.395C276.938 297.632 277.598 300.272 277.598 303.315C277.598 306.358 276.938 309.017 275.618 311.29C274.335 313.527 272.575 315.268 270.338 316.515C268.138 317.762 265.59 318.385 262.693 318.385ZM246.413 328.67V288.63H252.958V295.56L252.738 303.37L253.288 311.18V328.67H246.413ZM261.923 312.5C263.573 312.5 265.04 312.133 266.323 311.4C267.643 310.667 268.688 309.603 269.458 308.21C270.228 306.817 270.613 305.185 270.613 303.315C270.613 301.408 270.228 299.777 269.458 298.42C268.688 297.027 267.643 295.963 266.323 295.23C265.04 294.497 263.573 294.13 261.923 294.13C260.273 294.13 258.788 294.497 257.468 295.23C256.148 295.963 255.103 297.027 254.333 298.42C253.563 299.777 253.178 301.408 253.178 303.315C253.178 305.185 253.563 306.817 254.333 308.21C255.103 309.603 256.148 310.667 257.468 311.4C258.788 312.133 260.273 312.5 261.923 312.5ZM302.985 318V312.06L302.6 310.795V300.4C302.6 298.383 301.995 296.825 300.785 295.725C299.575 294.588 297.741 294.02 295.285 294.02C293.635 294.02 292.003 294.277 290.39 294.79C288.813 295.303 287.475 296.018 286.375 296.935L283.68 291.93C285.256 290.72 287.126 289.822 289.29 289.235C291.49 288.612 293.763 288.3 296.11 288.3C300.363 288.3 303.645 289.327 305.955 291.38C308.301 293.397 309.475 296.532 309.475 300.785V318H302.985ZM293.745 318.385C291.545 318.385 289.62 318.018 287.97 317.285C286.32 316.515 285.036 315.47 284.12 314.15C283.24 312.793 282.8 311.272 282.8 309.585C282.8 307.935 283.185 306.45 283.955 305.13C284.761 303.81 286.063 302.765 287.86 301.995C289.656 301.225 292.04 300.84 295.01 300.84H303.535V305.405H295.505C293.158 305.405 291.581 305.79 290.775 306.56C289.968 307.293 289.565 308.21 289.565 309.31C289.565 310.557 290.06 311.547 291.05 312.28C292.04 313.013 293.415 313.38 295.175 313.38C296.861 313.38 298.365 312.995 299.685 312.225C301.041 311.455 302.013 310.318 302.6 308.815L303.755 312.94C303.095 314.663 301.903 316.002 300.18 316.955C298.493 317.908 296.348 318.385 293.745 318.385ZM333.107 318.55C330.687 318.55 328.524 318.183 326.617 317.45C324.71 316.717 323.06 315.598 321.667 314.095C320.31 312.555 319.265 310.612 318.532 308.265C317.799 305.918 317.432 303.132 317.432 299.905C317.432 297.558 317.634 295.413 318.037 293.47C318.44 291.527 319.045 289.785 319.852 288.245C320.659 286.668 321.667 285.275 322.877 284.065C324.124 282.855 325.572 281.847 327.222 281.04C328.872 280.233 330.742 279.61 332.832 279.17L346.472 276.255L347.462 282.415L335.087 284.945C334.39 285.092 333.547 285.312 332.557 285.605C331.604 285.862 330.614 286.265 329.587 286.815C328.597 287.328 327.662 288.08 326.782 289.07C325.939 290.023 325.242 291.27 324.692 292.81C324.179 294.313 323.922 296.202 323.922 298.475C323.922 299.172 323.94 299.703 323.977 300.07C324.05 300.4 324.105 300.767 324.142 301.17C324.215 301.537 324.252 302.087 324.252 302.82L321.667 300.125C322.4 298.255 323.409 296.66 324.692 295.34C326.012 293.983 327.534 292.957 329.257 292.26C331.017 291.527 332.924 291.16 334.977 291.16C337.727 291.16 340.165 291.728 342.292 292.865C344.419 294.002 346.087 295.597 347.297 297.65C348.507 299.703 349.112 302.032 349.112 304.635C349.112 307.348 348.452 309.75 347.132 311.84C345.812 313.93 343.942 315.58 341.522 316.79C339.139 317.963 336.334 318.55 333.107 318.55ZM333.657 312.995C335.307 312.995 336.755 312.647 338.002 311.95C339.285 311.217 340.275 310.227 340.972 308.98C341.705 307.733 342.072 306.34 342.072 304.8C342.072 303.26 341.705 301.922 340.972 300.785C340.275 299.612 339.285 298.677 338.002 297.98C336.755 297.283 335.27 296.935 333.547 296.935C331.897 296.935 330.412 297.265 329.092 297.925C327.809 298.585 326.8 299.502 326.067 300.675C325.37 301.812 325.022 303.132 325.022 304.635C325.022 306.175 325.389 307.587 326.122 308.87C326.855 310.153 327.864 311.162 329.147 311.895C330.467 312.628 331.97 312.995 333.657 312.995ZM369.956 318.385C366.95 318.385 364.273 317.743 361.926 316.46C359.58 315.14 357.728 313.343 356.371 311.07C355.015 308.797 354.336 306.212 354.336 303.315C354.336 300.382 355.015 297.797 356.371 295.56C357.728 293.287 359.58 291.508 361.926 290.225C364.273 288.942 366.95 288.3 369.956 288.3C373 288.3 375.695 288.942 378.041 290.225C380.425 291.508 382.276 293.268 383.596 295.505C384.953 297.742 385.631 300.345 385.631 303.315C385.631 306.212 384.953 308.797 383.596 311.07C382.276 313.343 380.425 315.14 378.041 316.46C375.695 317.743 373 318.385 369.956 318.385ZM369.956 312.5C371.643 312.5 373.146 312.133 374.466 311.4C375.786 310.667 376.813 309.603 377.546 308.21C378.316 306.817 378.701 305.185 378.701 303.315C378.701 301.408 378.316 299.777 377.546 298.42C376.813 297.027 375.786 295.963 374.466 295.23C373.146 294.497 371.661 294.13 370.011 294.13C368.325 294.13 366.821 294.497 365.501 295.23C364.218 295.963 363.191 297.027 362.421 298.42C361.651 299.777 361.266 301.408 361.266 303.315C361.266 305.185 361.651 306.817 362.421 308.21C363.191 309.603 364.218 310.667 365.501 311.4C366.821 312.133 368.306 312.5 369.956 312.5ZM398.554 318V292.81L400.149 294.46H388.214V288.63H415.714V294.46H403.834L405.429 292.81V318H398.554ZM442.866 318L432.251 303.92L437.861 300.455L450.951 318H442.866ZM421.801 318V288.63H428.676V318H421.801ZM426.641 306.23V300.51H436.596V306.23H426.641ZM438.521 304.14L432.086 303.37L442.866 288.63H450.236L438.521 304.14ZM474.183 318V312.06L473.798 310.795V300.4C473.798 298.383 473.193 296.825 471.983 295.725C470.773 294.588 468.939 294.02 466.483 294.02C464.833 294.02 463.201 294.277 461.588 294.79C460.011 295.303 458.673 296.018 457.573 296.935L454.878 291.93C456.454 290.72 458.324 289.822 460.488 289.235C462.688 288.612 464.961 288.3 467.308 288.3C471.561 288.3 474.843 289.327 477.153 291.38C479.499 293.397 480.673 296.532 480.673 300.785V318H474.183ZM464.943 318.385C462.743 318.385 460.818 318.018 459.168 317.285C457.518 316.515 456.234 315.47 455.318 314.15C454.438 312.793 453.998 311.272 453.998 309.585C453.998 307.935 454.383 306.45 455.153 305.13C455.959 303.81 457.261 302.765 459.058 301.995C460.854 301.225 463.238 300.84 466.208 300.84H474.733V305.405H466.703C464.356 305.405 462.779 305.79 461.973 306.56C461.166 307.293 460.763 308.21 460.763 309.31C460.763 310.557 461.258 311.547 462.248 312.28C463.238 313.013 464.613 313.38 466.373 313.38C468.059 313.38 469.563 312.995 470.883 312.225C472.239 311.455 473.211 310.318 473.798 308.815L474.953 312.94C474.293 314.663 473.101 316.002 471.378 316.955C469.691 317.908 467.546 318.385 464.943 318.385Z" fill="white"/>
<path d="M982.5 30H30V500H865.5" stroke="white" stroke-width="5" stroke-linecap="round"/>
<path d="M981 30H1560V500H864" stroke="#0075FF" stroke-width="5" stroke-linecap="round"/>
<rect x="75" y="7" width="325" height="47" fill="#0075FF"/>
<path d="M137.76 53V25H142.96V53H137.76ZM157.013 53V29.4H147.733V25H171.493V29.4H162.213V53H157.013ZM188.765 53.4C186.632 53.4 184.645 53.0533 182.805 52.36C180.992 51.64 179.405 50.64 178.045 49.36C176.712 48.0533 175.672 46.52 174.925 44.76C174.179 43 173.805 41.08 173.805 39C173.805 36.92 174.179 35 174.925 33.24C175.672 31.48 176.725 29.96 178.085 28.68C179.445 27.3733 181.032 26.3733 182.845 25.68C184.659 24.96 186.645 24.6 188.805 24.6C191.099 24.6 193.192 25 195.085 25.8C196.979 26.5733 198.579 27.7333 199.885 29.28L196.525 32.44C195.512 31.3467 194.379 30.5333 193.125 30C191.872 29.44 190.512 29.16 189.045 29.16C187.579 29.16 186.232 29.4 185.005 29.88C183.805 30.36 182.752 31.04 181.845 31.92C180.965 32.8 180.272 33.84 179.765 35.04C179.285 36.24 179.045 37.56 179.045 39C179.045 40.44 179.285 41.76 179.765 42.96C180.272 44.16 180.965 45.2 181.845 46.08C182.752 46.96 183.805 47.64 185.005 48.12C186.232 48.6 187.579 48.84 189.045 48.84C190.512 48.84 191.872 48.5733 193.125 48.04C194.379 47.48 195.512 46.64 196.525 45.52L199.885 48.72C198.579 50.24 196.979 51.4 195.085 52.2C193.192 53 191.085 53.4 188.765 53.4ZM213.968 53.28C211.781 53.28 209.834 52.8133 208.128 51.88C206.421 50.92 205.074 49.6133 204.088 47.96C203.101 46.3067 202.608 44.4267 202.608 42.32C202.608 40.1867 203.101 38.3067 204.088 36.68C205.074 35.0267 206.421 33.7333 208.128 32.8C209.834 31.8667 211.781 31.4 213.968 31.4C216.181 31.4 218.141 31.8667 219.848 32.8C221.581 33.7333 222.928 35.0133 223.888 36.64C224.874 38.2667 225.368 40.16 225.368 42.32C225.368 44.4267 224.874 46.3067 223.888 47.96C222.928 49.6133 221.581 50.92 219.848 51.88C218.141 52.8133 216.181 53.28 213.968 53.28ZM213.968 49C215.194 49 216.288 48.7333 217.248 48.2C218.208 47.6667 218.954 46.8933 219.488 45.88C220.048 44.8667 220.328 43.68 220.328 42.32C220.328 40.9333 220.048 39.7467 219.488 38.76C218.954 37.7467 218.208 36.9733 217.248 36.44C216.288 35.9067 215.208 35.64 214.008 35.64C212.781 35.64 211.688 35.9067 210.728 36.44C209.794 36.9733 209.048 37.7467 208.488 38.76C207.928 39.7467 207.648 40.9333 207.648 42.32C207.648 43.68 207.928 44.8667 208.488 45.88C209.048 46.8933 209.794 47.6667 210.728 48.2C211.688 48.7333 212.768 49 213.968 49ZM239.989 53.28C238.175 53.28 236.575 52.9467 235.189 52.28C233.802 51.5867 232.722 50.5467 231.949 49.16C231.175 47.7467 230.789 45.9733 230.789 43.84V31.64H235.789V43.16C235.789 45.08 236.215 46.52 237.069 47.48C237.949 48.4133 239.189 48.88 240.789 48.88C241.962 48.88 242.975 48.64 243.829 48.16C244.709 47.68 245.389 46.96 245.869 46C246.375 45.04 246.629 43.8533 246.629 42.44V31.64H251.629V53H246.869V47.24L247.709 49C246.989 50.3867 245.935 51.4533 244.549 52.2C243.162 52.92 241.642 53.28 239.989 53.28ZM258.975 53V31.64H263.735V37.52L263.175 35.8C263.815 34.36 264.815 33.2667 266.175 32.52C267.562 31.7733 269.282 31.4 271.335 31.4V36.16C271.122 36.1067 270.922 36.08 270.735 36.08C270.549 36.0533 270.362 36.04 270.175 36.04C268.282 36.04 266.775 36.6 265.655 37.72C264.535 38.8133 263.975 40.4533 263.975 42.64V53H258.975ZM283.172 53.28C281.386 53.28 279.666 53.0533 278.012 52.6C276.386 52.12 275.092 51.5467 274.132 50.88L276.052 47.08C277.012 47.6933 278.159 48.2 279.492 48.6C280.826 49 282.159 49.2 283.492 49.2C285.066 49.2 286.199 48.9867 286.892 48.56C287.612 48.1333 287.972 47.56 287.972 46.84C287.972 46.2533 287.732 45.8133 287.252 45.52C286.772 45.2 286.146 44.96 285.372 44.8C284.599 44.64 283.732 44.4933 282.772 44.36C281.839 44.2267 280.892 44.0533 279.932 43.84C278.999 43.6 278.146 43.2667 277.372 42.84C276.599 42.3867 275.972 41.7867 275.492 41.04C275.012 40.2933 274.772 39.3067 274.772 38.08C274.772 36.72 275.159 35.5467 275.932 34.56C276.706 33.5467 277.786 32.7733 279.172 32.24C280.586 31.68 282.252 31.4 284.172 31.4C285.612 31.4 287.066 31.56 288.532 31.88C289.999 32.2 291.212 32.6533 292.172 33.24L290.252 37.04C289.239 36.4267 288.212 36.0133 287.172 35.8C286.159 35.56 285.146 35.44 284.132 35.44C282.612 35.44 281.479 35.6667 280.732 36.12C280.012 36.5733 279.652 37.1467 279.652 37.84C279.652 38.48 279.892 38.96 280.372 39.28C280.852 39.6 281.479 39.8533 282.252 40.04C283.026 40.2267 283.879 40.3867 284.812 40.52C285.772 40.6267 286.719 40.8 287.652 41.04C288.586 41.28 289.439 41.6133 290.212 42.04C291.012 42.44 291.652 43.0133 292.132 43.76C292.612 44.5067 292.852 45.48 292.852 46.68C292.852 48.0133 292.452 49.1733 291.652 50.16C290.879 51.1467 289.772 51.92 288.332 52.48C286.892 53.0133 285.172 53.28 283.172 53.28ZM307.998 53.28C305.625 53.28 303.545 52.8133 301.758 51.88C299.998 50.92 298.625 49.6133 297.638 47.96C296.678 46.3067 296.198 44.4267 296.198 42.32C296.198 40.1867 296.665 38.3067 297.598 36.68C298.558 35.0267 299.865 33.7333 301.518 32.8C303.198 31.8667 305.105 31.4 307.238 31.4C309.318 31.4 311.171 31.8533 312.798 32.76C314.425 33.6667 315.705 34.9467 316.638 36.6C317.571 38.2533 318.038 40.2 318.038 42.44C318.038 42.6533 318.025 42.8933 317.998 43.16C317.998 43.4267 317.985 43.68 317.958 43.92H300.158V40.6H315.318L313.358 41.64C313.385 40.4133 313.131 39.3333 312.598 38.4C312.065 37.4667 311.331 36.7333 310.398 36.2C309.491 35.6667 308.438 35.4 307.238 35.4C306.011 35.4 304.931 35.6667 303.998 36.2C303.091 36.7333 302.371 37.48 301.838 38.44C301.331 39.3733 301.078 40.48 301.078 41.76V42.56C301.078 43.84 301.371 44.9733 301.958 45.96C302.545 46.9467 303.371 47.7067 304.438 48.24C305.505 48.7733 306.731 49.04 308.118 49.04C309.318 49.04 310.398 48.8533 311.358 48.48C312.318 48.1067 313.171 47.52 313.918 46.72L316.598 49.8C315.638 50.92 314.425 51.7867 312.958 52.4C311.518 52.9867 309.865 53.28 307.998 53.28ZM330.241 53.28C328.454 53.28 326.734 53.0533 325.081 52.6C323.454 52.12 322.161 51.5467 321.201 50.88L323.121 47.08C324.081 47.6933 325.228 48.2 326.561 48.6C327.894 49 329.228 49.2 330.561 49.2C332.134 49.2 333.268 48.9867 333.961 48.56C334.681 48.1333 335.041 47.56 335.041 46.84C335.041 46.2533 334.801 45.8133 334.321 45.52C333.841 45.2 333.214 44.96 332.441 44.8C331.668 44.64 330.801 44.4933 329.841 44.36C328.908 44.2267 327.961 44.0533 327.001 43.84C326.068 43.6 325.214 43.2667 324.441 42.84C323.668 42.3867 323.041 41.7867 322.561 41.04C322.081 40.2933 321.841 39.3067 321.841 38.08C321.841 36.72 322.228 35.5467 323.001 34.56C323.774 33.5467 324.854 32.7733 326.241 32.24C327.654 31.68 329.321 31.4 331.241 31.4C332.681 31.4 334.134 31.56 335.601 31.88C337.068 32.2 338.281 32.6533 339.241 33.24L337.321 37.04C336.308 36.4267 335.281 36.0133 334.241 35.8C333.228 35.56 332.214 35.44 331.201 35.44C329.681 35.44 328.548 35.6667 327.801 36.12C327.081 36.5733 326.721 37.1467 326.721 37.84C326.721 38.48 326.961 38.96 327.441 39.28C327.921 39.6 328.548 39.8533 329.321 40.04C330.094 40.2267 330.948 40.3867 331.881 40.52C332.841 40.6267 333.788 40.8 334.721 41.04C335.654 41.28 336.508 41.6133 337.281 42.04C338.081 42.44 338.721 43.0133 339.201 43.76C339.681 44.5067 339.921 45.48 339.921 46.68C339.921 48.0133 339.521 49.1733 338.721 50.16C337.948 51.1467 336.841 51.92 335.401 52.48C333.961 53.0133 332.241 53.28 330.241 53.28Z" fill="white"/>
<defs>
<clipPath id="clip0_104_255">
<rect width="362" height="120" fill="white" transform="translate(1088 205)"/>
</clipPath>
</defs>
</svg>
