<svg width="406" height="73" viewBox="0 0 406 73" fill="none" xmlns="http://www.w3.org/2000/svg">
<rect x="31" y="39" width="25" height="25" rx="3" fill="white"/>
<rect y="39" width="25" height="25" rx="3" fill="white"/>
<rect x="31" y="8" width="25" height="25" rx="3" fill="white"/>
<rect x="62" y="39" width="25" height="25" rx="3" fill="white"/>
<rect x="62" y="8" width="25" height="25" rx="3" fill="white"/>
<path d="M110.64 58V16H118.44V58H110.64ZM138.32 58V22.6H124.4V16H160.04V22.6H146.12V58H138.32ZM184.748 58.6C181.548 58.6 178.568 58.08 175.808 57.04C173.088 55.96 170.708 54.46 168.668 52.54C166.668 50.58 165.108 48.28 163.988 45.64C162.868 43 162.308 40.12 162.308 37C162.308 33.88 162.868 31 163.988 28.36C165.108 25.72 166.688 23.44 168.728 21.52C170.768 19.56 173.148 18.06 175.868 17.02C178.588 15.94 181.568 15.4 184.808 15.4C188.248 15.4 191.388 16 194.228 17.2C197.068 18.36 199.468 20.1 201.428 22.42L196.388 27.16C194.868 25.52 193.168 24.3 191.288 23.5C189.408 22.66 187.368 22.24 185.168 22.24C182.968 22.24 180.948 22.6 179.108 23.32C177.308 24.04 175.728 25.06 174.368 26.38C173.048 27.7 172.008 29.26 171.248 31.06C170.528 32.86 170.168 34.84 170.168 37C170.168 39.16 170.528 41.14 171.248 42.94C172.008 44.74 173.048 46.3 174.368 47.62C175.728 48.94 177.308 49.96 179.108 50.68C180.948 51.4 182.968 51.76 185.168 51.76C187.368 51.76 189.408 51.36 191.288 50.56C193.168 49.72 194.868 48.46 196.388 46.78L201.428 51.58C199.468 53.86 197.068 55.6 194.228 56.8C191.388 58 188.228 58.6 184.748 58.6ZM221.351 58.42C218.071 58.42 215.151 57.72 212.591 56.32C210.031 54.88 208.011 52.92 206.531 50.44C205.051 47.96 204.311 45.14 204.311 41.98C204.311 38.78 205.051 35.96 206.531 33.52C208.011 31.04 210.031 29.1 212.591 27.7C215.151 26.3 218.071 25.6 221.351 25.6C224.671 25.6 227.611 26.3 230.171 27.7C232.771 29.1 234.791 31.02 236.231 33.46C237.711 35.9 238.451 38.74 238.451 41.98C238.451 45.14 237.711 47.96 236.231 50.44C234.791 52.92 232.771 54.88 230.171 56.32C227.611 57.72 224.671 58.42 221.351 58.42ZM221.351 52C223.191 52 224.831 51.6 226.271 50.8C227.711 50 228.831 48.84 229.631 47.32C230.471 45.8 230.891 44.02 230.891 41.98C230.891 39.9 230.471 38.12 229.631 36.64C228.831 35.12 227.711 33.96 226.271 33.16C224.831 32.36 223.211 31.96 221.411 31.96C219.571 31.96 217.931 32.36 216.491 33.16C215.091 33.96 213.971 35.12 213.131 36.64C212.291 38.12 211.871 39.9 211.871 41.98C211.871 44.02 212.291 45.8 213.131 47.32C213.971 48.84 215.091 50 216.491 50.8C217.931 51.6 219.551 52 221.351 52ZM259.183 58.42C256.463 58.42 254.063 57.92 251.983 56.92C249.903 55.88 248.283 54.32 247.123 52.24C245.963 50.12 245.383 47.46 245.383 44.26V25.96H252.883V43.24C252.883 46.12 253.523 48.28 254.803 49.72C256.123 51.12 257.983 51.82 260.383 51.82C262.143 51.82 263.663 51.46 264.943 50.74C266.263 50.02 267.283 48.94 268.003 47.5C268.763 46.06 269.143 44.28 269.143 42.16V25.96H276.643V58H269.503V49.36L270.763 52C269.683 54.08 268.103 55.68 266.023 56.8C263.943 57.88 261.663 58.42 259.183 58.42ZM286.463 58V25.96H293.603V34.78L292.763 32.2C293.723 30.04 295.223 28.4 297.263 27.28C299.343 26.16 301.923 25.6 305.003 25.6V32.74C304.683 32.66 304.383 32.62 304.103 32.62C303.823 32.58 303.543 32.56 303.263 32.56C300.423 32.56 298.163 33.4 296.483 35.08C294.803 36.72 293.963 39.18 293.963 42.46V58H286.463ZM321.558 58.42C318.878 58.42 316.298 58.08 313.818 57.4C311.378 56.68 309.438 55.82 307.998 54.82L310.878 49.12C312.318 50.04 314.038 50.8 316.038 51.4C318.038 52 320.038 52.3 322.038 52.3C324.398 52.3 326.098 51.98 327.138 51.34C328.218 50.7 328.758 49.84 328.758 48.76C328.758 47.88 328.398 47.22 327.678 46.78C326.958 46.3 326.018 45.94 324.858 45.7C323.698 45.46 322.398 45.24 320.958 45.04C319.558 44.84 318.138 44.58 316.698 44.26C315.298 43.9 314.018 43.4 312.858 42.76C311.698 42.08 310.758 41.18 310.038 40.06C309.318 38.94 308.958 37.46 308.958 35.62C308.958 33.58 309.538 31.82 310.698 30.34C311.858 28.82 313.478 27.66 315.558 26.86C317.678 26.02 320.178 25.6 323.058 25.6C325.218 25.6 327.398 25.84 329.598 26.32C331.798 26.8 333.618 27.48 335.058 28.36L332.178 34.06C330.658 33.14 329.118 32.52 327.558 32.2C326.038 31.84 324.518 31.66 322.998 31.66C320.718 31.66 319.018 32 317.898 32.68C316.818 33.36 316.278 34.22 316.278 35.26C316.278 36.22 316.638 36.94 317.358 37.42C318.078 37.9 319.018 38.28 320.178 38.56C321.338 38.84 322.618 39.08 324.018 39.28C325.458 39.44 326.878 39.7 328.278 40.06C329.678 40.42 330.958 40.92 332.118 41.56C333.318 42.16 334.278 43.02 334.998 44.14C335.718 45.26 336.078 46.72 336.078 48.52C336.078 50.52 335.478 52.26 334.278 53.74C333.118 55.22 331.458 56.38 329.298 57.22C327.138 58.02 324.558 58.42 321.558 58.42ZM357.597 58.42C354.037 58.42 350.917 57.72 348.237 56.32C345.597 54.88 343.537 52.92 342.057 50.44C340.617 47.96 339.897 45.14 339.897 41.98C339.897 38.78 340.597 35.96 341.997 33.52C343.437 31.04 345.397 29.1 347.877 27.7C350.397 26.3 353.257 25.6 356.457 25.6C359.577 25.6 362.357 26.28 364.797 27.64C367.237 29 369.157 30.92 370.557 33.4C371.957 35.88 372.657 38.8 372.657 42.16C372.657 42.48 372.637 42.84 372.597 43.24C372.597 43.64 372.577 44.02 372.537 44.38H345.837V39.4H368.577L365.637 40.96C365.677 39.12 365.297 37.5 364.497 36.1C363.697 34.7 362.597 33.6 361.197 32.8C359.837 32 358.257 31.6 356.457 31.6C354.617 31.6 352.997 32 351.597 32.8C350.237 33.6 349.157 34.72 348.357 36.16C347.597 37.56 347.217 39.22 347.217 41.14V42.34C347.217 44.26 347.657 45.96 348.537 47.44C349.417 48.92 350.657 50.06 352.257 50.86C353.857 51.66 355.697 52.06 357.777 52.06C359.577 52.06 361.197 51.78 362.637 51.22C364.077 50.66 365.357 49.78 366.477 48.58L370.497 53.2C369.057 54.88 367.237 56.18 365.037 57.1C362.877 57.98 360.397 58.42 357.597 58.42ZM389.761 58.42C387.081 58.42 384.501 58.08 382.021 57.4C379.581 56.68 377.641 55.82 376.201 54.82L379.081 49.12C380.521 50.04 382.241 50.8 384.241 51.4C386.241 52 388.241 52.3 390.241 52.3C392.601 52.3 394.301 51.98 395.341 51.34C396.421 50.7 396.961 49.84 396.961 48.76C396.961 47.88 396.601 47.22 395.881 46.78C395.161 46.3 394.221 45.94 393.061 45.7C391.901 45.46 390.601 45.24 389.161 45.04C387.761 44.84 386.341 44.58 384.901 44.26C383.501 43.9 382.221 43.4 381.061 42.76C379.901 42.08 378.961 41.18 378.241 40.06C377.521 38.94 377.161 37.46 377.161 35.62C377.161 33.58 377.741 31.82 378.901 30.34C380.061 28.82 381.681 27.66 383.761 26.86C385.881 26.02 388.381 25.6 391.261 25.6C393.421 25.6 395.601 25.84 397.801 26.32C400.001 26.8 401.821 27.48 403.261 28.36L400.381 34.06C398.861 33.14 397.321 32.52 395.761 32.2C394.241 31.84 392.721 31.66 391.201 31.66C388.921 31.66 387.221 32 386.101 32.68C385.021 33.36 384.481 34.22 384.481 35.26C384.481 36.22 384.841 36.94 385.561 37.42C386.281 37.9 387.221 38.28 388.381 38.56C389.541 38.84 390.821 39.08 392.221 39.28C393.661 39.44 395.081 39.7 396.481 40.06C397.881 40.42 399.161 40.92 400.321 41.56C401.521 42.16 402.481 43.02 403.201 44.14C403.921 45.26 404.281 46.72 404.281 48.52C404.281 50.52 403.681 52.26 402.481 53.74C401.321 55.22 399.661 56.38 397.501 57.22C395.341 58.02 392.761 58.42 389.761 58.42Z" fill="white"/>
</svg>
